<svg xmlns="http://www.w3.org/2000/svg" viewBox="0 0 100 100" width="1em" height="1em">
  <path 
    d="M 42 9 A 42 42 0 1 0 91 42" 
    fill="none" 
    stroke="currentColor" 
    stroke-width="8" 
    stroke-linecap="round"
  />

  <path 
    fill-rule="evenodd" 
    clip-rule="evenodd" 
    d="M32 42c0-10 8-18 18-18s18 8 18 18c0 12-18 36-18 36S32 54 32 42Zm18-9a9 9 0 1 0 0 18 9 9 0 0 0 0-18Z" 
    fill="currentColor"
  />

  <path 
    d="M 73 18 V 11 A 8 8 0 0 1 89 11 V 18" 
    fill="none" 
    stroke="currentColor" 
    stroke-width="8"
  />
  
  <rect 
    x="66" y="15" 
    width="30" height="22" 
    rx="4" 
    fill="currentColor"
  />
</svg>
